<?xml version="1.0" encoding="UTF-8"?>
<svg id="Layer_1" data-name="Layer 1" xmlns="http://www.w3.org/2000/svg" xmlns:xlink="http://www.w3.org/1999/xlink" viewBox="0 0 400 400">
  <defs>
    <style>
      .cls-1 {
        fill: url(#linear-gradient-2);
      }

      .cls-2 {
        fill: #fff;
        fill-opacity: 0;
      }

      .cls-3 {
        fill: #2e3192;
      }

      .cls-4 {
        fill: url(#linear-gradient);
      }
    </style>
    <linearGradient id="linear-gradient" x1="320.01" y1="95.79" x2="358.6" y2="95.79" gradientUnits="userSpaceOnUse">
      <stop offset="0" stop-color="#b1f6ff"/>
      <stop offset="0" stop-color="#b0f5ff"/>
      <stop offset=".07" stop-color="#95f2ff"/>
      <stop offset=".14" stop-color="#83f0ff"/>
      <stop offset=".21" stop-color="#77efff"/>
      <stop offset=".28" stop-color="#74efff"/>
      <stop offset=".67" stop-color="#00aeef"/>
      <stop offset=".89" stop-color="#2e3192"/>
      <stop offset="1" stop-color="#2e3192"/>
    </linearGradient>
    <linearGradient id="linear-gradient-2" x1="88.77" y1="136.46" x2="399.07" y2="136.46" xlink:href="#linear-gradient"/>
  </defs>
  <rect class="cls-2" x="-48.39" y="-32.65" width="512.86" height="473.25"/>
  <g>
    <g>
      <path class="cls-3" d="m320.83,18.97l-.55,53.95-.27,25.61-1.29,126.34c-.23,0-.47.04-.7.04-31.35,1.64-68.45-6.68-104.37-23.42-39.05-18.22-70.56-43.94-88.19-69.23l111.25-75.02,22.24-15.05,46.64-31.43c6.53-4.42,15.32.31,15.25,8.21Z"/>
      <path class="cls-3" d="m318.72,224.87l-.16,16.89c-.2,0-.35.04-.55.04-31.35,1.64-68.45-6.68-104.37-23.46-45.23-21.07-80.29-52.23-95.46-81.15l7.27-4.93c17.63,25.29,49.14,51.01,88.19,69.23,35.93,16.73,73.02,25.06,104.37,23.42.23,0,.47-.04.7-.04Z"/>
      <path class="cls-3" d="m310.18,263.18c-32.69,0-69.76-8.97-105.49-25.63-49.28-22.98-86.35-55.76-104.17-88.46L5.24,213.38c-7.44,5.02-4.75,16.58,4.15,17.79l160.02,21.76c9.42,1.28,18.05,5.93,24.31,13.08l106.31,121.56c5.91,6.76,17.04,2.64,17.14-6.34l1.19-118.26c-2.69.13-5.41.21-8.18.21Z"/>
    </g>
    <g>
      <path class="cls-4" d="m340.73,115.76c-6.33-6.02-13.25-11.81-20.72-17.24l.27-25.61c12.86,8.4,24.67,17.67,35.03,27.48,4.22,4.03,4.42,10.71.39,14.97-4.03,4.22-10.75,4.42-14.97.39Z"/>
      <path class="cls-1" d="m393.86,206.38c-11.02,23.65-37.57,37.76-74.74,39.72-2.93.16-5.9.23-8.91.23-32.72,0-69.78-8.99-105.51-25.64-84.05-39.21-132.64-106.88-110.63-154.1,19.9-42.65,89.64-51.87,164.89-24.39l-22.24,15.05c-57.58-17.08-109.93-10.67-123.45,18.29-7.35,15.79-2.19,36.12,12.2,56.72,17.63,25.29,49.14,51.01,88.19,69.23,35.93,16.73,73.02,25.06,104.37,23.42.23,0,.47-.04.7-.04,28.58-1.6,48.47-11.34,55.94-27.44,7.86-16.89.23-36.16-7.54-49.37-2.97-5.04-1.29-11.57,3.75-14.5,5.04-2.97,11.53-1.29,14.5,3.71,14.66,24.9,17.67,49.45,8.48,69.11Z"/>
    </g>
  </g>
</svg>